<svg width="15" height="12" viewBox="0 0 15 12" fill="none" xmlns="http://www.w3.org/2000/svg">
<path d="M14.483 6.00003L8.99153 0.508528C8.88321 0.400209 8.75462 0.314286 8.6131 0.255664C8.47157 0.197042 8.31988 0.16687 8.1667 0.16687C8.01351 0.16687 7.86183 0.197042 7.7203 0.255664C7.57878 0.314286 7.45018 0.400209 7.34187 0.508528C7.23355 0.616847 7.14762 0.745439 7.089 0.886965C7.03038 1.02849 7.00021 1.18018 7.00021 1.33336C7.00021 1.48655 7.03038 1.63823 7.089 1.77976C7.14762 1.92128 7.23355 2.04988 7.34187 2.15819L10.017 4.83336H1.1667C0.857279 4.83336 0.560532 4.95628 0.34174 5.17507C0.122947 5.39386 3.16521e-05 5.69061 3.16521e-05 6.00003C3.16521e-05 6.30945 0.122947 6.60619 0.34174 6.82499C0.560532 7.04378 0.857279 7.16669 1.1667 7.16669H10.017L7.34187 9.84186C7.23315 9.94996 7.14687 10.0785 7.088 10.22C7.02913 10.3616 6.99882 10.5134 6.99882 10.6667C6.99882 10.82 7.02913 10.9718 7.088 11.1134C7.14687 11.2549 7.23315 11.3834 7.34187 11.4915C7.56065 11.7102 7.85734 11.8331 8.1667 11.8331C8.47606 11.8331 8.77275 11.7102 8.99153 11.4915L14.483 6.00003Z" fill="#B4B4B4"/>
</svg>
