<svg width="11" height="12" viewBox="0 0 11 12" fill="none" xmlns="http://www.w3.org/2000/svg">
<path d="M10.8754 0.879548L3.10924 0.879548C2.95606 0.879549 2.80437 0.90972 2.66285 0.968342C2.52132 1.02696 2.39273 1.11289 2.28441 1.22121C2.17609 1.32952 2.09017 1.45812 2.03155 1.59964C1.97293 1.74117 1.94275 1.89285 1.94275 2.04604C1.94275 2.19922 1.97293 2.35091 2.03155 2.49244C2.09017 2.63396 2.17609 2.76255 2.28441 2.87087C2.39273 2.97919 2.52132 3.06511 2.66285 3.12374C2.80437 3.18236 2.95606 3.21253 3.10924 3.21253L6.8925 3.21253L0.63437 9.47066C0.415578 9.68945 0.292661 9.9862 0.292661 10.2956C0.292661 10.605 0.415578 10.9018 0.634371 11.1206C0.853163 11.3394 1.14991 11.4623 1.45933 11.4623C1.76875 11.4623 2.06549 11.3394 2.28429 11.1206L8.54242 4.86245L8.54242 8.6457C8.54198 8.79901 8.57185 8.95089 8.63032 9.09262C8.68878 9.23434 8.77469 9.36311 8.8831 9.47151C8.9915 9.57992 9.12027 9.66583 9.26199 9.72429C9.40371 9.78276 9.5556 9.81263 9.70891 9.81219C10.0183 9.81215 10.3149 9.68923 10.5337 9.47048C10.7524 9.25174 10.8754 8.95506 10.8754 8.6457L10.8754 0.879548Z" fill="#1C1C1E"/>
</svg>
