<svg width="23" height="22" viewBox="0 0 23 22" fill="none" xmlns="http://www.w3.org/2000/svg">
<path d="M8.79241 13.4344L10.2328 14.0785C11.1543 14.4901 12.2101 14.4901 13.1405 14.0785L14.5809 13.4344C15.8693 12.8618 17.0592 14.4185 16.1645 15.51L13.0689 19.2945C12.3085 20.2249 11.0649 20.2249 10.2955 19.2945L7.20884 15.51C6.30522 14.4185 7.49513 12.8618 8.79241 13.4344Z" fill="#3A6FF8"/>
<path d="M8.61356 10.9651C8.34515 11.1619 8.38094 11.5734 8.68513 11.7255L10.7876 12.7723C11.2797 13.0228 12.0759 13.0228 12.5591 12.7723L14.6615 11.7255C14.9568 11.5734 14.9926 11.1708 14.7331 10.9651L11.9507 8.87153C11.7896 8.75522 11.5749 8.75522 11.4139 8.87153L8.61356 10.9651Z" fill="#3A6FF8"/>
<path d="M16.9431 7.89629L13.2123 3.24399C13.1407 3.15452 13.0602 3.074 12.9797 2.99348C12.747 2.76981 12.416 2.97559 12.416 3.29767V7.14476C12.416 7.28791 12.4786 7.42211 12.5949 7.50263L16.3078 10.294L16.4689 10.4103C16.6299 10.5266 16.8536 10.5266 16.9878 10.3835C17.6141 9.70353 17.6051 8.71939 16.9431 7.89629Z" fill="#3A6FF8"/>
<path d="M6.4123 7.97682L10.1252 3.25295C10.1968 3.16348 10.2683 3.08296 10.3489 3.00244C10.5815 2.77877 10.9125 2.9756 10.9125 3.30663V7.21635C10.9125 7.3595 10.8499 7.48475 10.7336 7.57422L7.03857 10.4103L6.88647 10.5266C6.72543 10.6429 6.50177 10.6429 6.35862 10.4909C5.75024 9.80195 5.75919 8.81781 6.4123 7.97682Z" fill="#3A6FF8"/>
</svg>
