<svg width="34" height="34" viewBox="0 0 34 34" fill="none" xmlns="http://www.w3.org/2000/svg">
<g clip-path="url(#clip0_1_338)">
<path d="M33.3422 13.7359H31.9997V13.6667H16.9997V20.3334H26.4188C25.0447 24.2142 21.3522 27 16.9997 27C11.4772 27 6.99967 22.5225 6.99967 17C6.99967 11.4775 11.4772 7.00004 16.9997 7.00004C19.5488 7.00004 21.868 7.96171 23.6338 9.53254L28.348 4.81837C25.3713 2.04421 21.3897 0.333374 16.9997 0.333374C7.79551 0.333374 0.333008 7.79587 0.333008 17C0.333008 26.2042 7.79551 33.6667 16.9997 33.6667C26.2038 33.6667 33.6663 26.2042 33.6663 17C33.6663 15.8825 33.5513 14.7917 33.3422 13.7359Z" fill="#FFC107"/>
<path d="M2.255 9.24251L7.73084 13.2583C9.2125 9.59001 12.8008 7.00001 17 7.00001C19.5492 7.00001 21.8683 7.96168 23.6342 9.53251L28.3483 4.81834C25.3717 2.04418 21.39 0.333344 17 0.333344C10.5983 0.333344 5.04667 3.94751 2.255 9.24251Z" fill="#FF3D00"/>
<path d="M16.9996 33.6666C21.3046 33.6666 25.2163 32.0191 28.1738 29.34L23.0154 24.975C21.2862 26.2908 19.1726 27.0023 16.9996 27C12.6646 27 8.98378 24.2358 7.59711 20.3783L2.16211 24.5658C4.92044 29.9633 10.5221 33.6666 16.9996 33.6666Z" fill="#4CAF50"/>
<path d="M33.3425 13.7359H32V13.6667H17V20.3334H26.4192C25.7618 22.1804 24.5778 23.7943 23.0133 24.9759L23.0158 24.9742L28.1742 29.3392C27.8092 29.6709 33.6667 25.3334 33.6667 17C33.6667 15.8825 33.5517 14.7917 33.3425 13.7359Z" fill="#1976D2"/>
</g>
<defs>
<clipPath id="clip0_1_338">
<rect width="34" height="34" fill="white"/>
</clipPath>
</defs>
</svg>
