<svg width="16" height="16" viewBox="0 0 16 16" fill="none" xmlns="http://www.w3.org/2000/svg">
<path d="M8.09893 1.27979C4.58509 1.27979 1.73328 4.1316 1.73328 7.64544C1.73328 11.1593 4.58509 14.0111 8.09893 14.0111C11.6128 14.0111 14.4646 11.1593 14.4646 7.64544C14.4646 4.1316 11.6128 1.27979 8.09893 1.27979ZM10.5306 10.3954C10.4733 10.7009 10.2123 10.9174 9.90677 10.9174H6.38019C5.96006 10.9174 5.65452 10.51 5.7691 10.1089L6.30381 8.23108L5.21529 8.44751C5.18346 8.45388 5.15164 8.45387 5.11981 8.45387C4.89701 8.45387 4.69967 8.29473 4.65511 8.07193C4.60418 7.81094 4.76969 7.56268 5.03068 7.51176L6.603 7.19984L7.43689 4.29074C7.47509 4.15706 7.60241 4.06158 7.74245 4.06158H8.60817C9.02831 4.06158 9.33386 4.45624 9.22564 4.86365L8.71002 6.77971L9.93861 6.53145C10.1932 6.48052 10.4478 6.64603 10.4988 6.90702C10.5497 7.16801 10.3842 7.41627 10.1232 7.4672L8.42993 7.80458L8.07983 9.10954H10.0086C10.4033 9.10954 10.7025 9.46601 10.6325 9.86069L10.5306 10.3954Z" fill="#64CFF9"/>
</svg>
